<svg width="190.43380460809527" height="188.09374999999997" viewBox="0 0 312.5 308.65999340802597" class="css-1j8o68f"><defs id="SvgjsDefs1901"></defs><g id="SvgjsG1902" featurekey="rootContainer" transform="matrix(2.9625549258840507,0,0,2.9625549258840507,-0.11091114243678592,0.09882825188831798)" fill="#111111"><path xmlns="http://www.w3.org/2000/svg" d="M104.6 41.3a52.2 52.2 0 0 0-3.5-11.2A51.1 51.1 0 0 0 44.3 1a49.6 49.6 0 0 0-5.7 1.5 49.1 49.1 0 0 0-7.9 2.7A51.6 51.6 0 0 0 6.3 77a53.7 53.7 0 0 0 4.1 6.4 57 57 0 0 0 5 5.7 51.7 51.7 0 0 0 55.3 11.5l3.3-1.4 3-1.5a50.9 50.9 0 0 0 5.8-3.8l2.7-2.1 1.2-1.1 1.1-.9 2-1.8.7-.6.6-.7 1.8-2a48.5 48.5 0 0 0 5.9-8.3 50.4 50.4 0 0 0 5.6-14.7 51.6 51.6 0 0 0 .2-20.4zM87.1 88.6l-1.2 1.1-1.2 1.1-2.6 2.1a49.5 49.5 0 0 1-5.7 3.6l-3 1.5-3.2 1.3-4.9 1.6h-.5a50.9 50.9 0 0 1-20.3.1 51.8 51.8 0 0 1-11.1-3.6A50.5 50.5 0 0 1 22.9 91a52 52 0 0 1-9.1-9.4 50.3 50.3 0 0 1-3.7-5.7c-.6-1-1.1-2-1.6-3.1s-1-2.1-1.3-3.2a50.6 50.6 0 0 1 8.6-50.8l.8-.8.5-.6.6-.6 1.2-1.1 2.4-2.1A50.5 50.5 0 0 1 62.4 3.2a48.5 48.5 0 0 1 14.7 5.2 47 47 0 0 1 8.3 5.8l2 1.8.7.6.6.7 1.8 2a49.7 49.7 0 0 1 11.3 22.9 50.8 50.8 0 0 1-.1 20.2 51.6 51.6 0 0 1-3.6 11 50.2 50.2 0 0 1-6.6 10.5l-2.1 2.4zm-44.9 13a50.1 50.1 0 0 1-13.7-5 51.8 51.8 0 0 1-6.2-4 55.2 55.2 0 0 1-5.5-4.8 49.9 49.9 0 0 1-11-53.2c.4-1.1.9-2.1 1.3-3.1l.6-1.3a50.2 50.2 0 0 0-3.4 11 51.3 51.3 0 0 0 2.4 28.5c.4 1.1.9 2.2 1.4 3.2s1 2.1 1.6 3.1a50.6 50.6 0 0 0 3.7 5.8 51.5 51.5 0 0 0 9.2 9.5 50.9 50.9 0 0 0 10.7 6.5 51 51 0 0 0 28.7 3.9 50.3 50.3 0 0 1-19.8-.1zm61.9-39.9a50.2 50.2 0 0 1-5.5 14.7 48.4 48.4 0 0 1-5.8 8.3l-1.8 2-.6.7-.7.6-1.9 1.7h.2l2.3-2.4 2.1-2.5A51.3 51.3 0 0 0 98.9 74a51.4 51.4 0 0 0 3.2-31.6 49.6 49.6 0 0 0-2.5-8.2 49.4 49.4 0 0 0-3.1-6.5 48.7 48.7 0 0 0-5.9-8.3l-1.8-2-.6-.7-.7-.6-2-1.8A49.9 49.9 0 0 0 77.3 8a49.3 49.3 0 0 0-6.5-3.2 49.8 49.8 0 0 0-8.2-2.6A52.2 52.2 0 0 0 49.9 1a50.8 50.8 0 0 1 22.7 3.2l3.2 1.3 3.1 1.6a50.1 50.1 0 0 1 5.7 3.7l2.6 2.1 1.2 1.1 1.2 1.1 2.3 2.3 2.1 2.4a50.4 50.4 0 0 1 6.5 10.5 51.6 51.6 0 0 1 3.6 11 51.1 51.1 0 0 1 0 20.3z"></path></g><g id="SvgjsG1903" featurekey="symbolFeature-0" transform="matrix(0.9362939481535014,0,0,0.9362939481535014,121.77834151912515,80.47905713945048)" fill="#970747"><defs xmlns="http://www.w3.org/2000/svg"></defs><g xmlns="http://www.w3.org/2000/svg"><path class="fil0" d="M57.155 72.3309c2.97423,0.677297 5.65927,1.17752 8.45397,1.2016 1.58012,0.0136741 3.20067,-0.124549 4.93572,-0.468289 -1.50247,-0.100237 -2.83727,-0.435562 -4.12178,-0.758433 -0.623987,-0.156726 -1.23585,-0.310511 -1.84837,-0.43102 -2.14293,-0.421625 -3.83716,-1.21503 -5.43105,-1.96161 -0.64249,-0.300877 -1.2682,-0.593866 -1.90641,-0.852359 -0.29373,-0.0141044 -0.58428,-0.0359064 -0.871961,-0.0655973 -0.465349,-0.0481939 -0.922713,-0.117329 -1.37348,-0.209056 0.568167,0.60307 1.24912,1.58882 2.16335,3.54476zm-19.2868 -24.2795c1.1004,-0.0612704 2.09111,-0.0755421 2.98224,-0.0496522 0.224642,-0.352418 0.426813,-0.711387 0.628744,-1.06997 0.641462,-1.13894 1.28113,-2.27458 2.70194,-3.39227l1.07523 -1.46583c-0.61268,0.139084 -1.38782,0.248165 -2.27757,0.310583 -1.95714,0.137434 -4.53119,0.0970572 -7.16923,-0.284932 -2.14186,-0.310033 -4.32873,-0.845761 -6.26918,-1.69475l2.61091 5.94717c1.68115,0.610672 2.14296,0.825249 2.67189,1.07102 0.300017,0.139442 0.621979,0.289092 1.18293,0.519304 0.491502,0.20174 1.165,0.155794 1.64722,0.122875 0.0644976,-0.00444646 0.125146,-0.00860606 0.214865,-0.0135545zm3.86775 -0.00860606c1.41233,0.0908896 2.54187,0.293897 3.43874,0.57608 1.48421,0.46707 2.35849,1.15697 2.83168,1.92563 0.485454,0.78853 0.543473,1.64522 0.399321,2.43083 -0.139562,0.75982 -0.46958,1.44859 -0.777223,1.93338 -0.584519,0.921016 -1.37544,2.14394 -2.549,3.41503 0.409959,-0.0506323 0.794698,-0.0883795 1.17936,-0.126127 1.40195,-0.137601 2.804,-0.275274 5.61247,-1.09091 1.7345,-0.50367 3.48058,-1.42399 5.08164,-2.47943 2.25904,-1.48904 4.22799,-3.24733 5.47534,-4.49136 1.05097,-1.04824 1.64825,-1.68829 2.11845,-2.56274 0.477087,-0.887118 0.844709,-2.04707 1.43571,-4.13438 0.107576,-0.379408 0.164065,-0.727451 0.175181,-1.04604 0.0317468,-0.907007 -0.303077,-1.60759 -0.87232,-2.14508 -0.598958,-0.565514 -1.45906,-0.964596 -2.43492,-1.24099 -1.20399,-0.340824 -2.57367,-0.492769 -3.85566,-0.537664 -1.52031,-0.053262 -3.4424,0.435371 -5.39318,1.15085 -2.88329,1.0574 -5.80689,2.60262 -7.62411,3.6467 -2.28185,1.31106 -3.0502,2.67539 -3.82133,4.04459 -0.136932,0.243145 -0.274055,0.486553 -0.420167,0.731659zm2.42428 11.2054c-0.366953,0.342282 -0.763716,0.682245 -1.19359,1.01439 1.47015,1.52105 2.96213,2.78416 4.43095,3.84796 1.56955,1.13679 3.1108,2.04516 4.57022,2.79752 1.43138,0.738018 2.90526,1.15348 4.47628,1.31608 1.58213,0.163754 3.26942,0.0713825 5.11535,-0.206522 2.0318,-0.305945 5.32514,-1.33645 8.70178,-2.84304 2.29093,-1.02221 4.61572,-2.26143 6.6051,-3.63943 -1.64216,-0.0694461 -4.05568,-0.679688 -6.6701,-1.3408 -2.9619,-0.749062 -6.18819,-1.56496 -8.72387,-1.72645 -2.8525,-0.181779 -4.80868,-0.279625 -7.24138,-0.184289 -2.41285,0.0944276 -5.32101,0.380412 -10.0707,0.964572zm-1.82331 1.47809c-0.762521,0.534699 -1.61897,1.04141 -2.58395,1.49614 -1.1906,0.560996 -2.26382,0.861084 -3.25952,0.953121 1.00853,1.24578 1.74026,2.55889 2.46109,3.85255 0.902082,1.6187 1.78674,3.20621 3.17475,4.54945 1.34778,1.30403 2.72676,2.56678 4.29318,3.66986 1.55818,1.09696 3.30368,2.03722 5.39234,2.7045 2.06689,0.660252 4.06808,1.11456 5.22828,0.730559 1.01824,-0.336975 1.33004,-1.47737 0.280342,-4.02955 -1.93761,-4.71093 -2.89678,-5.4271 -3.72269,-6.04356 -0.137482,-0.102675 -0.271497,-0.202721 -0.420095,-0.328728 -0.529249,-0.190266 -1.05111,-0.417107 -1.568,-0.683536 -1.49301,-0.769716 -3.06849,-1.69798 -4.67039,-2.85817 -1.52514,-1.1048 -3.07612,-2.42098 -4.60534,-4.01265zm-6.83967 2.47278c-0.152686,-0.00714781 -0.303794,-0.0191724 -0.453324,-0.0359064 0.129234,1.71251 0.547274,3.46004 1.16636,5.12261 0.726041,1.94956 1.72932,3.78217 2.86778,5.30504 0.960891,1.28505 2.21427,2.39368 3.54053,3.31458 1.68669,1.17136 3.48686,2.03691 4.95618,2.57708 1.2393,0.455715 3.11221,0.536588 4.94507,0.358658 0.774665,-0.075303 1.53857,-0.196242 2.24135,-0.354307 -0.984964,-0.1502 -2.07717,-0.444957 -3.18008,-0.797328 -2.17738,-0.695561 -3.99058,-1.67125 -5.60477,-2.8078 -1.60582,-1.13057 -3.0132,-2.41914 -4.38727,-3.74878 -1.46798,-1.42038 -2.38068,-3.05833 -3.31133,-4.72846 -0.794531,-1.42576 -1.60259,-2.87572 -2.7805,-4.2054zm-1.23922 -0.169013c-0.132533,-0.0300495 -0.264278,-0.0637566 -0.394994,-0.100906 -0.124549,-0.0354044 -0.248165,-0.0740121 -0.370945,-0.115417 -0.120365,0.452105 -0.252803,0.886066 -0.453181,1.32364 -0.204872,0.447706 -0.475389,0.883436 -0.866535,1.31929 -1.92453,3.6483 -3.47611,5.72712 -5.03435,7.03933 -1.51756,1.27802 -3.01277,1.8165 -4.84416,2.35153 1.41006,0.0169253 2.67371,-0.214745 3.8088,-0.587818 1.78284,-0.585858 3.25888,-1.52416 4.48832,-2.39894 1.23232,-0.876647 2.124,-1.6105 2.82384,-2.36447 0.658077,-0.708948 1.15001,-1.44104 1.6029,-2.33535 -0.405202,-1.36119 -0.672301,-2.75698 -0.7597,-4.13089zm-1.49435 -0.499797c-1.26899,-0.558007 -2.47047,-1.41398 -3.75105,-2.39332 -0.126844,-0.0969855 -0.250484,-0.191222 -0.370682,-0.282853 -1.60575,-1.22431 -2.65332,-2.02297 -3.45815,-3.30191 -1.17052,0.295809 -1.90132,0.309364 -2.90722,0.327915 -0.919295,0.016997 -2.07753,0.0383687 -4.06077,0.299658 -1.70139,0.224236 -3.61206,0.252373 -5.63128,-0.0696135l-0.239057 0.0881882c-2.92023,1.07633 -6.33442,2.33468 -8.31209,5.3905 -0.203007,0.313691 -0.367383,0.64316 -0.493629,0.983792 -0.452296,1.22079 -0.402572,2.57288 0.118979,3.85401 0.529249,1.30014 1.54285,2.52793 3.01052,3.47771 0.610911,0.395425 1.30238,0.743133 2.07234,1.02833 4.92283,1.82417 8.80756,0.364443 11.4981,-0.64665l0.00152997 0 0.198872 -0.0745859c1.32072,-0.495207 3.67713,-1.68241 5.87705,-2.89121 2.29842,-1.26282 4.40745,-2.53721 4.9557,-3.05219 0.518061,-0.486553 0.83768,-0.962588 1.06192,-1.45232 0.183955,-0.402023 0.309794,-0.830365 0.428893,-1.28546zm-8.36676 -7.58103c-0.349741,-0.906051 -0.66446,-2.02984 -0.988621,-3.50042 -0.386627,-1.75365 -0.372021,-3.13928 -0.0113552,-4.1671 0.204298,-0.581913 0.517774,-1.05135 0.931391,-1.41025 0.0524013,-0.0455643 0.106524,-0.0893596 0.162176,-0.131266 -0.887309,-1.07255 -1.71724,-2.23475 -2.56202,-3.41773 -1.47298,-2.06292 -2.99183,-4.19 -4.91282,-5.96826 -1.57551,-1.45856 -2.86921,-2.59308 -4.13239,-3.4791 -1.2479,-0.875189 -2.47004,-1.50938 -3.91705,-1.9787l-0.0136263 -0.0045899c-1.70414,-0.620688 -3.16942,-0.919773 -4.00034,-0.46915 -0.782363,0.424446 -1.02608,1.61854 -0.392867,4.02278l0.00145825 0.00769764c0.442352,1.8219 1.08001,3.73484 1.84447,5.57771 0.767326,1.84982 1.65951,3.62234 2.60701,5.15443 0.947575,1.53233 1.9312,2.94124 3.0267,4.18231 1.08714,1.23141 2.2874,2.29992 3.67687,3.16246 1.65758,1.029 3.61832,1.38809 5.58481,1.74832 1.04138,0.190696 2.08432,0.381751 3.0962,0.670842zm0.940427 -9.66358c0.158758,-0.0577323 0.324998,-0.105735 0.498721,-0.14396 1.17936,-0.260023 2.70481,-0.0665296 4.4982,0.562884 0.291961,0.102508 0.562047,0.197844 0.812603,0.286773l-2.68576 -6.11752c-0.26368,-0.17334 -0.428104,-0.376682 -0.498841,-0.599556 -0.105711,-0.333007 -0.00738687,-0.664603 0.277378,-0.971385 0.219144,-0.23626 0.563386,-0.462193 1.01879,-0.660204 1.16959,-0.508355 3.16863,-0.87122 5.73761,-0.759772 -0.559657,-1.25388 -1.11707,-2.28885 -1.85563,-3.395 -0.853506,-1.27838 -1.95537,-2.66224 -3.58459,-4.59282 -0.330688,-0.391887 -0.687696,-0.76025 -1.06294,-1.10375 -1.61005,-1.47341 -3.60764,-2.55834 -5.36602,-3.1383 -1.67833,-0.553561 -3.09266,-0.652626 -3.6522,-0.180488 -0.0252923,0.0213239 -0.0453253,0.0399465 -0.0598599,0.0559633 -0.85004,0.928809 -1.04872,1.24941 -1.24742,1.57003 -0.0892879,0.144199 -0.1786,0.288399 -0.312663,0.473405 0.27023,1.40403 0.807464,2.19175 1.5822,3.3272 0.455571,0.667854 0.989649,1.45062 1.59719,2.53147 0.758361,1.34924 1.49315,3.21214 2.16873,5.25156 0.8154,2.46179 1.55012,5.2033 2.13452,7.60345zm19.6067 4.07382c-1.52019,-0.478354 -3.76929,-0.715833 -7.0334,-0.534126 -0.0405441,0.00224714 -0.120748,0.00774545 -0.205709,0.0135545 -0.555689,0.0379384 -1.332,0.0908896 -1.99324,-0.18056 -0.597308,-0.245153 -0.916187,-0.393273 -1.21329,-0.531376 -0.669958,-0.311324 -1.22938,-0.571395 -4.41916,-1.69085 -1.65803,-0.581889 -3.04062,-0.767015 -4.07626,-0.538692 -0.463173,0.102173 -0.85494,0.288207 -1.16789,0.559896 -0.310655,0.269609 -0.548493,0.628816 -0.706629,1.07932 -0.314073,0.894935 -0.318592,2.13887 0.0356195,3.74524 1.10846,5.02823 2.09689,5.78196 4.94829,7.95606 0.120318,0.0916067 0.243886,0.185843 0.370682,0.282853 1.57828,1.20702 3.02376,2.21661 4.58933,2.66169 1.54273,0.438479 3.23528,0.335063 5.34977,-0.661304 2.1628,-1.0191 3.75251,-2.30645 4.94794,-3.57042 1.1944,-1.26282 2.00741,-2.51993 2.60276,-3.45792 0.267146,-0.421028 0.552868,-1.01403 0.670938,-1.65719 0.113194,-0.616409 0.0712152,-1.2829 -0.299156,-1.88446 -0.382539,-0.621358 -1.11962,-1.18866 -2.40059,-1.59171zm1.0651 -7.00122c1.52868,-0.861921 3.66185,-1.97765 5.88011,-2.90019 1.30148,-2.01889 2.87179,-3.95986 4.54469,-5.69999 -0.113552,-1.47981 -0.263369,-3.22644 -0.678229,-4.77409 -0.416246,-1.55275 -1.09782,-2.90882 -2.2797,-3.57649l-0.0409266 -0.0257704c-0.587507,-0.437857 -2.25326,-0.417346 -4.15952,-0.0205828 -1.7902,0.372714 -3.75597,1.08568 -5.23315,2.07932l-0.0543616 0.036504c-3.02144,2.03211 -5.38586,3.62308 -7.82597,9.48665 0.158328,0.0148933 0.318472,0.0316273 0.480386,0.0501303 0.337716,0.0387273 0.67187,0.082164 1.00186,0.129856 2.78368,0.403051 5.04927,1.0922 6.60685,1.79876 1.6942,0.768569 2.60489,1.63527 2.53274,2.26519 -0.000478114,0.00408788 -0.00145825,0.0112357 -0.00286869,0.0213 -0.00872559,0.0599795 -0.0274916,0.117831 -0.0561306,0.173293 -0.0253401,0.0489828 -0.0659081,0.0974636 -0.12082,0.14506l-0.594966 0.811049zm7.14597 -3.40049c0.0597404,-0.0223519 0.119529,-0.0445125 0.179269,-0.0663862 2.03191,-0.745285 4.05159,-1.25364 5.68454,-1.19641 1.34013,0.046903 2.77462,0.206378 4.0409,0.565036 1.08812,0.308025 2.05886,0.764218 2.75666,1.42308 0.727571,0.686883 1.15563,1.57998 1.11513,2.73393 -0.00301212,0.0856303 -0.00862997,0.172623 -0.0168057,0.260883 4.32718,-5.3775 5.39528,-9.68643 6.12974,-12.651 0.290502,-1.17241 0.530588,-2.14179 0.900911,-2.91174 -0.975736,-0.451507 -2.52896,-0.5904 -4.28967,-0.371184 -1.81112,0.225574 -3.82176,0.834095 -5.63716,1.87622 -1.98659,1.1404 -4.17093,2.84426 -6.24035,4.8799 -1.67299,1.64577 -3.26894,3.50573 -4.62318,5.45768zm13.3494 5.47522c-0.482872,1.66386 -0.829505,2.6794 -1.27477,3.50752 -0.23846,0.443308 -0.500777,0.826206 -0.82219,1.21785 1.99723,-0.987474 3.96213,-2.03007 5.83175,-3.02226 4.45507,-2.36399 8.37236,-4.44238 11.0937,-4.89209 -0.607134,-0.166073 -1.43243,-0.29067 -2.02276,-0.285363 -0.859124,0.00774545 -3.63126,0.505415 -6.68885,1.34032 -2.08946,0.570582 -4.30368,1.29827 -6.11692,2.13402zm-3.5767 6.29882c-1.27367,1.26523 -3.26325,3.03462 -5.54998,4.54199 -1.40042,0.923072 -2.91279,1.74789 -4.44264,2.2998 0.43879,-0.02687 0.858598,-0.0480744 1.26538,-0.0639478 2.47687,-0.0970572 4.44897,0.001267 7.32029,0.184265 0.188425,0.0119768 0.38034,0.0274916 0.575172,0.0460663 8.38386,-2.6281 12.8456,-7.20009 17.6054,-12.0782 0.900313,-0.922713 1.81136,-1.85642 2.76341,-2.79221 0.154837,-0.158997 0.237886,-0.315603 0.25517,-0.452966 0.0100882,-0.0798929 -0.00413569,-0.153618 -0.0410461,-0.215056 -0.0404963,-0.0676054 -0.112429,-0.127178 -0.214124,-0.172241 -0.15424,-0.0684182 -0.362387,-0.0998781 -0.622027,-0.0792714 -0.102747,0.0192202 -0.216897,0.0363845 -0.343382,0.0513017l-0.000143434 -0.00050202c-2.58992,0.41235 -6.47606,2.47443 -10.8987,4.82126 -2.42825,1.28845 -5.01726,2.66236 -7.67278,3.90966zm-3.79788 18.3205c0.113289,0.0528316 0.22708,0.106141 0.341302,0.159642 1.54847,0.725132 3.19435,1.49607 5.25199,1.90084 0.626904,0.12333 1.2512,0.280295 1.88788,0.440248 2.3713,0.595946 4.92056,1.23655 8.39454,0.250078 0.49339,-0.140064 0.904999,-0.344242 1.24429,-0.598408 0.832445,-0.623533 1.25273,-1.56659 1.39313,-2.61519 0.145921,-1.08929 -0.00707609,-2.29155 -0.316799,-3.38242 -0.26129,-0.920394 -0.631565,-1.75346 -1.02594,-2.367 -1.78779,1.14028 -3.76905,2.16971 -5.72346,3.04174 -3.44393,1.53654 -6.81425,2.58942 -8.90211,2.90368 -0.879229,0.132342 -1.72547,0.22371 -2.54484,0.266788zm17.818 -6.63585c0.437021,0.679305 0.843059,1.58806 1.12505,2.58124 0.335039,1.17968 0.499152,2.48988 0.338027,3.69198 -0.166456,1.24307 -0.67744,2.37075 -1.69666,3.1343 -0.415147,0.310966 -0.910975,0.558581 -1.49765,0.725443 -3.62815,1.30391 -6.68562,1.78234 -9.61385,1.75712 -2.68887,-0.0232125 -5.25443,-0.469939 -8.04791,-1.09094 0.155244,0.35402 0.316631,0.73381 0.484832,1.14291 1.16423,2.83051 0.821927,4.28541 -0.364634,4.89912 -1.12503,0.662954 -3.08118,1.16007 -5.08243,1.3545 -1.93639,0.187995 -3.93426,0.0955273 -5.28503,-0.401162 -1.52232,-0.559729 -3.3867,-1.45595 -5.13227,-2.66812 -1.3883,-0.96407 -2.70419,-2.12964 -3.71949,-3.48765 -1.17798,-1.57546 -2.21723,-3.47501 -2.97108,-5.49934 -0.0467118,-0.125529 -0.0923956,-0.251584 -0.136932,-0.378093 -0.390667,0.671631 -0.825775,1.26531 -1.36547,1.8466 -0.737229,0.794268 -1.66568,1.55966 -2.94222,2.46776 -1.27936,0.910139 -2.81903,1.88776 -4.69776,2.50515 -1.87481,0.61617 -4.07724,0.870121 -6.67639,0.336425 -2.52939,0.237479 -5.97143,0.0571586 -9.11834,-1.00053 -2.97794,-1.00103 -5.70199,-2.78423 -7.17724,-5.73458 -0.166073,-0.28847 -0.309842,-0.58263 -0.431211,-0.880639 -0.594296,-1.46002 -0.648347,-3.00787 -0.127896,-4.41245 0.14494,-0.391265 0.335493,-0.772585 0.572494,-1.13863 1.90168,-2.93844 4.9525,-4.29175 7.75004,-5.34616 -0.371065,-0.0892401 -0.744807,-0.190863 -1.12068,-0.305945 -2.40609,-0.736368 -4.89761,-2.01944 -7.31957,-4.083 -2.74352,-2.33741 -5.31324,-4.99611 -7.42387,-7.71215 -2.01174,-2.58877 -3.61134,-5.23641 -4.5544,-7.71748l-4.78114e-005 0c-0.161866,-0.423394 -0.101647,-0.82066 0.132175,-1.1787 0.208338,-0.31895 0.55588,-0.594798 1.00182,-0.81705 1.19328,-0.594966 3.19593,-0.853649 5.06048,-0.518085 1.96185,0.35304 3.36404,0.659846 4.5899,1.00755 0.979394,0.277785 1.84951,0.582272 2.80321,0.957161 -0.182879,-0.608568 -0.347972,-1.21393 -0.492984,-1.81031l-0.000358586 7.17172e-005c-0.745285,-2.82996 -0.339413,-4.29995 0.772466,-4.90304 0.918075,-0.4981 2.29136,-0.335326 3.87012,0.163085 -0.923813,-1.23875 -1.51364,-2.67056 -1.82716,-4.14011 -0.256771,-1.20294 -0.328058,-2.43289 -0.246086,-3.60266 -0.00341852,-0.390118 0.0213717,-0.789271 0.0780522,-1.19854l0 -0.00152997c0.132916,-0.928164 0.386819,-1.63209 0.73075,-2.14783 0.49547,-0.742846 1.16507,-1.09412 1.92778,-1.15701 0.72016,-0.0594296 1.51218,0.147498 2.30559,0.5254 1.31314,0.625302 2.65356,1.73321 3.65961,2.85714 2.10263,2.34879 2.35005,3.20387 2.57044,4.42875 0.195262,-0.299037 0.480075,-0.681026 1.19297,-1.46002 0.0439387,-0.0478832 0.0871125,-0.0897899 0.129689,-0.12572 0.773135,-0.652435 2.46965,-0.600584 4.39583,0.0347589 1.84629,0.608951 3.94722,1.75119 5.64519,3.30528 0.406493,0.371925 0.787192,0.76386 1.13296,1.17358 1.64471,1.94913 2.76114,3.35206 3.63613,4.66257 0.717435,1.07454 1.26825,2.07997 1.80837,3.2627 2.47613,-5.79429 4.89264,-7.41991 7.96484,-9.48615l0.0543138 -0.0364562c1.56441,-1.05233 3.63114,-1.80426 5.5063,-2.19462 2.09359,-0.435801 3.99003,-0.412159 4.76336,0.146088 1.38362,0.794698 2.16292,2.31379 2.6243,4.03517 0.370276,1.38125 0.536158,2.88922 0.648969,4.24351 0.0268222,-0.0265114 0.0537401,-0.052999 0.080634,-0.0793909 2.11857,-2.08408 4.3582,-3.83032 6.3981,-5.00139 1.90952,-1.09617 4.02405,-1.73622 5.92862,-1.97339 2.13416,-0.265736 4.0285,-0.0211327 5.111,0.657288l0.320361 0.200808 -0.191341 0.324281c-0.426215,0.722503 -0.683058,1.75925 -1.0044,3.05668 -0.75107,3.0317 -1.84327,7.43805 -6.27181,12.9424 1.54517,-0.613899 3.25672,-1.15551 4.89247,-1.60211 3.11874,-0.851618 5.98016,-1.35947 6.88621,-1.36767 0.831274,-0.00757811 2.08448,0.217757 2.73737,0.475126 0.217925,0.0858933 0.391074,0.184839 0.495829,0.293921 0.110923,0.115249 0.17487,0.22983 0.185628,0.342593 0.018503,0.00733906 0.0365758,0.0148933 0.0544094,0.0228539 0.252755,0.111951 0.443499,0.280151 0.566327,0.484832 0.126485,0.210848 0.1764,0.454065 0.144152,0.709785 -0.0378189,0.300399 -0.191126,0.613373 -0.4697,0.898305l-0.00611987 0.00609596c-0.946356,0.930052 -1.85599,1.86247 -2.75525,2.78396 -3.52017,3.60776 -6.88009,7.05032 -11.7586,9.69217 0.368722,0.148 0.732089,0.312663 1.07664,0.486673 0.572303,0.289092 1.09558,0.605293 1.50876,0.916067 0.531878,0.0256508 1.03992,0.0649279 1.51775,0.117258 1.41421,0.155029 3.51789,0.615429 4.90658,1.2479 0.516172,0.235161 0.943655,0.498721 1.21938,0.78657 0.350219,0.365758 0.480911,0.768856 0.303172,1.2065 -0.0833593,0.205039 -0.237097,0.405202 -0.471875,0.597476l-0.0521623 -0.0636609 0.044632 0.0682269c-0.506634,0.396285 -1.04351,0.783152 -1.60324,1.15916zm1.14798 -1.78901c0.113241,-0.0970333 0.183237,-0.184696 0.215343,-0.263608 0.0457556,-0.112692 -0.0118333,-0.241448 -0.14243,-0.377902 -0.205159,-0.214243 -0.551409,-0.423275 -0.982573,-0.619636 -1.30946,-0.596376 -3.31333,-1.03266 -4.66678,-1.18101 -1.33035,-0.145801 -2.90266,-0.187995 -4.57199,-0.110612 -0.811049,0.0376754 -1.64486,0.103464 -2.48474,0.199302 1.62255,0.333365 3.31078,0.76025 4.92159,1.16751 3.53183,0.893166 6.68098,1.68939 7.71158,1.18596zm-8.51151 -3.36573c-0.11654,-0.0639 -0.236189,-0.126987 -0.358538,-0.188736 -0.5254,-0.265449 -1.09491,-0.507016 -1.65444,-0.695872 -0.832756,0.416988 -1.70924,0.811312 -2.6369,1.18011 1.00712,-0.126915 2.00932,-0.211518 2.97956,-0.256532 0.569482,-0.0263919 1.12811,-0.0392054 1.67032,-0.0389663zm-40.6397 -17.9979l0.000430303 -0.000358586c2.07423,1.07193 4.55017,1.71705 6.97366,2.06794 2.58003,0.373551 5.09605,0.413019 7.00837,0.278836 1.59446,-0.111903 2.71732,-0.301977 3.02914,-0.490474l0.0513495 -0.0701872c-0.0748249,-0.309173 -0.811241,-0.826684 -2.07521,-1.39997 -1.5013,-0.681098 -3.69324,-1.34656 -6.39732,-1.73802 -0.316775,-0.0458512 -0.643662,-0.0883077 -0.980685,-0.126844 -3.21642,-0.368124 -5.67885,-0.000119529 -6.98638,0.568263 -0.35555,0.154527 -0.612202,0.317803 -0.760871,0.477947 -0.0830007,0.0895508 -0.119529,0.161483 -0.104301,0.20951 0.0210609,0.0663862 0.100045,0.141689 0.241806,0.223351zm-24.3412 -1.85611c-1.16717,-0.475246 -2.16232,-0.838732 -3.31321,-1.16514 -1.21192,-0.343764 -2.59172,-0.645837 -4.51703,-0.992351 -1.70292,-0.306424 -3.51295,-0.0797017 -4.57797,0.451197 -0.3266,0.162822 -0.569793,0.347278 -0.698191,0.543951 -0.0969855,0.14855 -0.122517,0.311707 -0.0563697,0.483685l0 0 0.00303603 0.00776936 7.17172e-005 0.000358586c0.14255,0.355669 0.599795,0.76111 1.47455,1.19954 0.837274,0.419665 1.71693,0.853984 2.5189,1.24991 2.68136,1.32376 4.44548,2.19481 7.029,3.78511 1.54988,0.953982 3.19529,2.04657 4.85638,3.20473 0.914896,0.637853 1.82852,1.29163 2.72862,1.9497 -0.588296,-0.800196 -1.14932,-1.64749 -1.69766,-2.5341 -0.972437,-1.57247 -1.88423,-3.38235 -2.66458,-5.26371 -0.398413,-0.960532 -0.763477,-1.94138 -1.08554,-2.92066zm7.67467 13.3485c-1.74364,-1.32839 -3.57909,-2.67672 -5.39863,-3.94533 -1.62329,-1.13179 -3.25355,-2.21324 -4.82004,-3.1775 -2.56776,-1.58046 -4.3129,-2.44216 -6.96517,-3.75157 -0.706319,-0.348808 -1.48091,-0.73118 -2.52201,-1.25302 -0.142072,-0.0711673 -0.275418,-0.142741 -0.400445,-0.214458 0.922737,1.90254 2.1961,3.87923 3.7111,5.82886 2.08138,2.67849 4.61328,5.29835 7.3146,7.5998 2.33473,1.98927 4.73049,3.22433 7.04031,3.93127 2.84406,0.870431 5.562,0.942746 7.87775,0.63759 2.02257,-0.266477 3.20805,-0.288351 4.14884,-0.305754 0.872511,-0.0160646 1.52636,-0.0281609 2.46922,-0.241926 -1.14649,-0.379551 -2.36069,-0.601946 -3.5725,-0.823839 -2.04052,-0.373742 -4.07473,-0.746313 -5.85513,-1.85159 -1.11394,-0.691545 -2.11131,-1.50902 -3.0279,-2.43253zm-2.35687 -20.3449c0.466472,0.177022 0.912721,0.373073 1.34747,0.590758 -1.39784,-1.42636 -2.74708,-2.91688 -3.67304,-4.56568 0.435204,1.46996 1.18725,2.85879 2.32557,3.97492zm4.36519 2.54285c0.998518,0.781072 2.04554,1.71349 3.25429,2.83259 1.98506,1.83742 3.5254,3.9946 5.01908,6.08654 0.571944,0.800937 1.13698,1.59222 1.71588,2.34945 -0.519161,-2.04521 -1.13497,-4.25804 -1.81055,-6.2977 -0.661615,-1.99759 -1.37697,-3.81437 -2.10801,-5.11487 -0.59389,-1.0567 -1.11561,-1.82147 -1.56076,-2.47393 -0.860773,-1.26162 -1.44799,-2.12235 -1.73603,-3.79482l-0.000980135 -0.00537879c-0.0575411,-0.278143 -0.0962684,-0.499247 -0.132533,-0.706366 -0.2141,-1.22127 -0.342115,-1.95152 -2.42282,-4.27595 -0.943368,-1.05379 -2.1956,-2.09041 -3.41694,-2.67201 -0.676197,-0.322058 -1.33425,-0.499797 -1.90784,-0.452535 -0.53109,0.043867 -0.99914,0.290933 -1.34795,0.814062 -0.0630872,0.0945471 -0.122708,0.198202 -0.178361,0.311133 -0.25572,0.791519 -0.427291,1.67412 -0.496689,2.59879 0.0436758,3.68574 2.93935,6.58495 5.67123,9.3195 0.49841,0.498841 0.99149,0.992422 1.45899,1.48149zm-5.46918 39.8292c0.635534,0.317372 1.29873,0.587507 1.97633,0.815329 4.15721,1.39731 8.83137,1.21004 11.0407,0.573905 1.85611,-0.534508 3.34087,-1.03474 4.80586,-2.26841 1.2408,-1.04492 2.48988,-2.62576 3.96627,-5.20428 -0.991179,0.642012 -2.41818,1.47733 -3.91595,2.3003 -2.22187,1.22077 -4.61603,2.42512 -5.98035,2.93672l-0.197509 0.0740838 0.000239057 0.00050202c-2.74005,1.02967 -6.66927,2.50544 -11.6956,0.771844z" style="fill: #970747; fill-rule: nonzero;"></path></g></g><g id="SvgjsG1904" featurekey="nameFeature-0" transform="matrix(0.6056975272095307,0,0,0.6056975272095307,54.643237388864726,167.98056603365532)" fill="#111111"><path d="M12.76 23.8 c3.04 1.44 7 3.72 7 7.84 c0 1.2 -0.2 3.52 -1.52 5.48 c-1.48 2.2 -3.8 3.28 -7 3.28 c-3.4 0 -7.36 -1.64 -8.6 -5.36 c-0.04 -0.12 0 -0.24 0.12 -0.32 l3.68 -3.16 c0.16 -0.12 0.4 -0.12 0.52 0.08 c0.08 0.2 0.24 0.52 0.44 0.92 c0.6 1.24 2.04 2.48 3.64 2.48 c1.24 0 2.92 -0.68 2.92 -2.6 c0 -1.84 -2.52 -2.88 -4.08 -3.48 c-1.8 -0.72 -3.64 -1.64 -5.2 -3 c-1.64 -1.52 -2.44 -3.2 -2.44 -5.2 c0 -5 4.6 -7.52 8.96 -7.52 c3.44 0 6 1.8 7.68 5.36 c0.08 0.16 0 0.36 -0.12 0.44 l-3.56 2.48 c-0.16 0.08 -0.24 0.08 -0.4 -0.12 c-1.36 -1.96 -2.56 -2.88 -4.16 -2.88 c-0.84 0 -2.8 0.32 -2.8 1.8 c0 1.8 3.32 2.72 4.92 3.48 z M5.48 34.84 c1 2 3.76 3.16 6 3.16 c2.92 0 5.28 -2 5.6 -5.04 c0.4 -3.72 -2.52 -5.32 -5.4 -6.76 l-1.28 -0.56 c-2.96 -1.32 -5.12 -2.32 -5.12 -5.08 c0 -3.04 2.8 -4.44 5.56 -4.44 c2.52 0 3.84 1.48 4.52 2.4 c0.24 0.32 0.64 0.04 0.4 -0.28 c-0.68 -0.84 -2.12 -2.6 -4.92 -2.6 c-3.16 0 -6.04 1.56 -6.04 4.92 c0 3 2.4 4.16 5.44 5.56 l1.24 0.6 c3.96 1.88 5.4 3.64 5.08 6.2 c-0.6 4.08 -3.72 4.6 -5.08 4.6 c-3 0 -5 -1.8 -5.6 -2.92 c-0.2 -0.2 -0.48 0 -0.4 0.24 z M38.229 24 l0 -10.04 c0 -0.2 0.16 -0.36 0.36 -0.36 l4.56 0 c0.2 0 0.36 0.16 0.36 0.36 l0 25.68 c0 0.2 -0.16 0.36 -0.36 0.36 l-4.56 0 c-0.2 0 -0.36 -0.16 -0.36 -0.36 l0 -10.64 l-6.48 0 l0 10.64 c0 0.2 -0.16 0.36 -0.36 0.36 l-4.56 0 c-0.2 0 -0.32 -0.16 -0.32 -0.36 l0 -25.68 c0 -0.2 0.12 -0.36 0.32 -0.36 l4.56 0 c0.2 0 0.36 0.16 0.36 0.36 l0 10.04 l6.48 0 z M28.829 37.52 c0 0.32 0.52 0.28 0.52 0 l0 -10.72 l11.24 0 l0 10.72 c0 0.28 0.44 0.32 0.44 0 l0 -21.52 c0 -0.28 -0.44 -0.36 -0.44 0 l0 10.24 l-11.24 0 l0 -10.24 c0 -0.28 -0.52 -0.28 -0.52 0 l0 21.52 z M56.73799999999999 13.84 c0.04 -0.12 0.12 -0.24 0.28 -0.24 l4.96 0 c0.16 0 0.24 0.12 0.28 0.24 l6.92 25.72 c0.04 0.24 -0.12 0.44 -0.36 0.44 l-4.56 0 c-0.12 0 -0.24 -0.08 -0.28 -0.24 l-1.56 -5.6 l-5.84 0 l-1.52 5.6 c-0.04 0.16 -0.12 0.24 -0.28 0.24 l-4.6 0 c-0.24 0 -0.4 -0.2 -0.36 -0.44 z M57.858 29.2 l3.32 0 l-1.72 -6.04 z M64.018 31.560000000000002 l1.84 6 c0.08 0.24 0.52 0.2 0.4 -0.12 l-6.4 -21.28 c-0.12 -0.52 -0.8 -0.56 -0.92 0 l-6.2 21.28 c-0.12 0.28 0.32 0.4 0.44 0.16 l1.76 -6.04 l9.08 0 z M55.05799999999999 31.04 l4.36 -14.72 l4.44 14.72 l-8.8 0 z M90.527 29.560000000000002 c-0.56 1.16 -1.36 2.04 -2.48 2.56 l3.36 7.4 c0.12 0.24 -0.04 0.48 -0.28 0.48 l-4.92 0 c-0.16 0 -0.24 -0.08 -0.28 -0.2 l-3.12 -6.8 l-2.04 0 l0 6.64 c0 0.2 -0.16 0.36 -0.36 0.36 l-4.6 0 c-0.16 0 -0.28 -0.16 -0.28 -0.36 l0 -25.68 c0 -0.2 0.12 -0.36 0.28 -0.36 l8.32 0 c4.44 0 7.12 2.52 7.12 7.2 l0 5.04 c0 1.4 -0.24 2.72 -0.72 3.72 z M86.00699999999999 24.6 l0 -2.6 c0 -2.8 -1.04 -3.08 -4.08 -3.08 l-1.16 0 l0 8.84 l1.16 0 c2.52 0 4 -0.04 4.08 -3.16 z M78.447 37.56 l0 -6.84 l5.76 0 l3.36 6.92 c0.08 0.2 0.56 0.12 0.44 -0.24 l-3.36 -6.8 c3.12 -0.44 4.2 -2.08 4.2 -5.04 l0 -5 c0 -4.4 -4 -4.76 -5.24 -4.76 l-5.4 0 c-0.08 0 -0.24 0.12 -0.24 0.24 l0 21.52 c0 0.28 0.48 0.28 0.48 0 z M88.36699999999999 20.56 l0 5 c0 4.08 -2.6 4.64 -5.12 4.64 l-4.8 0 l0 -13.88 l5.16 0 c4.32 0 4.76 2.92 4.76 4.24 z M107.756 13.239999999999998 c3.44 0 5.84 0.76 7.36 2.4 c1.2 1.32 1.76 3.2 1.76 5.88 l0 10.52 c0 2.76 -0.56 4.68 -1.76 5.96 c-1.56 1.6 -3.92 2.4 -7.36 2.4 c-3.56 0 -5.88 -0.8 -7.4 -2.4 c-1.16 -1.28 -1.8 -3.2 -1.8 -5.96 l0 -10.52 c0 -2.68 0.64 -4.56 1.8 -5.92 c1.56 -1.6 3.92 -2.36 7.4 -2.36 z M111.556 30.84 l0 -8 c0 -3.52 -1.88 -4.24 -3.6 -4.24 l-0.48 0 c-2.56 0 -3.56 1.64 -3.56 4.24 l0 8 c0 3.52 1.88 4.28 3.56 4.28 l0.48 0 c2.56 0 3.56 -1.72 3.6 -4.28 z M101.07600000000001 21.8 l0 9.92 c0 1.88 0.48 3.44 1.6 4.6 c1.04 1.04 2.64 1.6 4.6 1.6 l1.04 0 c3.76 0 6.2 -2.4 6.2 -6.2 l0 -9.92 c0 -4.08 -2.16 -6.28 -6.2 -6.28 l-1.04 0 c-4.08 0 -6.2 2.2 -6.2 6.28 z M108.316 37.4 l-1.04 0 c-1.88 0 -3.28 -0.48 -4.28 -1.48 s-1.52 -2.4 -1.52 -4.2 l0 -9.92 c0 -3.8 2.04 -5.8 5.8 -5.8 l1.04 0 c3.8 0 5.68 1.96 5.68 5.8 l0 9.92 c0 1.68 -0.52 3.2 -1.6 4.24 c-1.04 0.88 -2.44 1.44 -4.08 1.44 z M147.505 13.600000000000001 c0.2 0 0.36 0.16 0.36 0.36 l0 25.68 c0 0.2 -0.16 0.36 -0.36 0.36 l-4.36 0 c-0.12 0 -0.32 -0.16 -0.32 -0.36 l0 -14.8 l-4.4 14.92 c-0.08 0.16 -0.16 0.24 -0.32 0.24 l-3.16 0 c-0.12 0 -0.28 -0.08 -0.32 -0.24 l-4.12 -15.2 l0 15.08 c0 0.2 -0.16 0.36 -0.36 0.36 l-4.44 0 c-0.16 0 -0.28 -0.16 -0.28 -0.36 l0 -25.68 c0 -0.2 0.12 -0.36 0.28 -0.36 l5.6 0 c0.16 0 0.32 0.12 0.36 0.24 l4.84 16.2 l5.32 -16.2 c0 -0.12 0.12 -0.24 0.28 -0.24 l5.4 0 z M145.025 37.56 c0 0.28 0.52 0.36 0.52 0 l0 -21.56 c0 -0.08 -0.12 -0.2 -0.24 -0.2 l-1.88 0 c-0.16 0 -0.2 0.12 -0.28 0.2 l-6.64 19.8 l-6.6 -19.84 c0 -0.12 -0.08 -0.16 -0.2 -0.16 l-1.96 0 c-0.12 0 -0.24 0.12 -0.24 0.24 l0 21.52 c0 0.28 0.52 0.36 0.52 0 l0 -21.24 l1.48 0 l6.76 20.32 c0.16 0.28 0.28 0.2 0.48 0 l6.8 -20.32 l1.48 0 l0 21.24 z M160.334 13.84 c0.04 -0.12 0.12 -0.24 0.28 -0.24 l4.96 0 c0.16 0 0.24 0.12 0.28 0.24 l6.92 25.72 c0.04 0.24 -0.12 0.44 -0.36 0.44 l-4.56 0 c-0.12 0 -0.24 -0.08 -0.28 -0.24 l-1.56 -5.6 l-5.84 0 l-1.52 5.6 c-0.04 0.16 -0.12 0.24 -0.28 0.24 l-4.6 0 c-0.24 0 -0.4 -0.2 -0.36 -0.44 z M161.454 29.2 l3.32 0 l-1.72 -6.04 z M167.614 31.560000000000002 l1.84 6 c0.08 0.24 0.52 0.2 0.4 -0.12 l-6.4 -21.28 c-0.12 -0.52 -0.8 -0.56 -0.92 0 l-6.2 21.28 c-0.12 0.28 0.32 0.4 0.44 0.16 l1.76 -6.04 l9.08 0 z M158.65400000000002 31.04 l4.36 -14.72 l4.44 14.72 l-8.8 0 z M183.243 18.6 l-5.68 0 c-0.2 0 -0.36 -0.16 -0.36 -0.36 l0 -4.28 c0 -0.2 0.16 -0.36 0.36 -0.36 l16.68 0 c0.2 0 0.36 0.16 0.36 0.36 l0 4.28 c0 0.2 -0.16 0.36 -0.36 0.36 l-5.68 0 l0 21.04 c0 0.2 -0.16 0.36 -0.36 0.36 l-4.6 0 c-0.2 0 -0.36 -0.16 -0.36 -0.36 l0 -21.04 z M191.803 15.8 l-12.08 0 c-0.28 0 -0.28 0.52 0 0.52 l5.92 0 l0 21.2 c0 0.28 0.52 0.28 0.52 0 l0 -21.2 l5.64 0 c0.4 0 0.36 -0.52 0 -0.52 z M212.672 24 l0 -10.04 c0 -0.2 0.16 -0.36 0.36 -0.36 l4.56 0 c0.2 0 0.36 0.16 0.36 0.36 l0 25.68 c0 0.2 -0.16 0.36 -0.36 0.36 l-4.56 0 c-0.2 0 -0.36 -0.16 -0.36 -0.36 l0 -10.64 l-6.48 0 l0 10.64 c0 0.2 -0.16 0.36 -0.36 0.36 l-4.56 0 c-0.2 0 -0.32 -0.16 -0.32 -0.36 l0 -25.68 c0 -0.2 0.12 -0.36 0.32 -0.36 l4.56 0 c0.2 0 0.36 0.16 0.36 0.36 l0 10.04 l6.48 0 z M203.27200000000002 37.52 c0 0.32 0.52 0.28 0.52 0 l0 -10.72 l11.24 0 l0 10.72 c0 0.28 0.44 0.32 0.44 0 l0 -21.52 c0 -0.28 -0.44 -0.36 -0.44 0 l0 10.24 l-11.24 0 l0 -10.24 c0 -0.28 -0.52 -0.28 -0.52 0 l0 21.52 z M226.501 40 c-0.2 0 -0.32 -0.16 -0.32 -0.36 l0 -25.68 c0 -0.2 0.12 -0.36 0.32 -0.36 l13.6 0 c0.2 0 0.36 0.16 0.36 0.36 l0 4.28 c0 0.2 -0.16 0.36 -0.36 0.36 l-8.64 0 l0 5.44 l6.72 0 c0.2 0 0.32 0.16 0.32 0.36 l0 4.36 c0 0.2 -0.12 0.36 -0.32 0.36 l-6.72 0 l0 5.88 l8.64 0 c0.2 0 0.36 0.16 0.36 0.36 l0 4.28 c0 0.2 -0.16 0.36 -0.36 0.36 l-13.6 0 z M228.501 16.12 l0 21.28 c0 0.24 0.16 0.32 0.32 0.32 l9.2 0 c0.36 0 0.28 -0.48 0 -0.48 l-9 0 l0 -10.44 l7.36 0 c0.24 0 0.24 -0.56 0 -0.56 l-7.36 0 l0 -9.92 l9 0 c0.28 0 0.36 -0.52 0 -0.52 l-9.2 0 c-0.16 0 -0.32 0.12 -0.32 0.32 z M262.96999999999997 29.560000000000002 c-0.56 1.16 -1.36 2.04 -2.48 2.56 l3.36 7.4 c0.12 0.24 -0.04 0.48 -0.28 0.48 l-4.92 0 c-0.16 0 -0.24 -0.08 -0.28 -0.2 l-3.12 -6.8 l-2.04 0 l0 6.64 c0 0.2 -0.16 0.36 -0.36 0.36 l-4.6 0 c-0.16 0 -0.28 -0.16 -0.28 -0.36 l0 -25.68 c0 -0.2 0.12 -0.36 0.28 -0.36 l8.32 0 c4.44 0 7.12 2.52 7.12 7.2 l0 5.04 c0 1.4 -0.24 2.72 -0.72 3.72 z M258.45 24.6 l0 -2.6 c0 -2.8 -1.04 -3.08 -4.08 -3.08 l-1.16 0 l0 8.84 l1.16 0 c2.52 0 4 -0.04 4.08 -3.16 z M250.89 37.56 l0 -6.84 l5.76 0 l3.36 6.92 c0.08 0.2 0.56 0.12 0.44 -0.24 l-3.36 -6.8 c3.12 -0.44 4.2 -2.08 4.2 -5.04 l0 -5 c0 -4.4 -4 -4.76 -5.24 -4.76 l-5.4 0 c-0.08 0 -0.24 0.12 -0.24 0.24 l0 21.52 c0 0.28 0.48 0.28 0.48 0 z M260.81 20.56 l0 5 c0 4.08 -2.6 4.64 -5.12 4.64 l-4.8 0 l0 -13.88 l5.16 0 c4.32 0 4.76 2.92 4.76 4.24 z M276.51899999999995 13.84 c0.04 -0.12 0.12 -0.24 0.28 -0.24 l4.96 0 c0.16 0 0.24 0.12 0.28 0.24 l6.92 25.72 c0.04 0.24 -0.12 0.44 -0.36 0.44 l-4.56 0 c-0.12 0 -0.24 -0.08 -0.28 -0.24 l-1.56 -5.6 l-5.84 0 l-1.52 5.6 c-0.04 0.16 -0.12 0.24 -0.28 0.24 l-4.6 0 c-0.24 0 -0.4 -0.2 -0.36 -0.44 z M277.63899999999995 29.2 l3.32 0 l-1.72 -6.04 z M283.799 31.560000000000002 l1.84 6 c0.08 0.24 0.52 0.2 0.4 -0.12 l-6.4 -21.28 c-0.12 -0.52 -0.8 -0.56 -0.92 0 l-6.2 21.28 c-0.12 0.28 0.32 0.4 0.44 0.16 l1.76 -6.04 l9.08 0 z M274.83899999999994 31.04 l4.36 -14.72 l4.44 14.72 l-8.8 0 z M303.90799999999996 13.600000000000001 c4.44 0 7.12 2.52 7.12 7.2 l0 5.04 c0 4.28 -2.64 7.16 -7.12 7.16 l-3.36 0 l0 6.64 c0 0.2 -0.16 0.36 -0.36 0.36 l-4.6 0 c-0.16 0 -0.28 -0.16 -0.28 -0.36 l0 -25.68 c0 -0.2 0.12 -0.36 0.28 -0.36 l8.32 0 z M305.78799999999995 24.64 l0 -2.64 c0 -2.76 -1.28 -3.04 -4.08 -3.04 l-1.16 0 l0 8.8 l1.16 0 c2.2 0 4.08 -0.4 4.08 -3.12 z M308.62799999999993 25.560000000000002 l0 -5 c0 -4.4 -3.4 -4.76 -5.24 -4.76 l-5.4 0 c-0.08 0 -0.24 0.12 -0.24 0.24 l0 21.52 c0 0.28 0.48 0.28 0.48 0 l0 -6.8 l4.8 0 c3.52 0 5.6 -1.24 5.6 -5.2 z M298.22799999999995 16.32 l5.16 0 c4.44 0 4.72 2.92 4.72 4.24 l0 5 c0 4.08 -2.56 4.64 -5.08 4.64 l-4.8 0 l0 -13.88 z M320.4169999999999 13.8 l3.48 6.72 l3.4 -6.72 c0.12 -0.2 0.16 -0.2 0.32 -0.2 l4.48 0 c0.24 0 0.4 0.24 0.32 0.44 l-5.8 13.48 l0 12.12 c0 0.2 -0.16 0.36 -0.36 0.36 l-4.72 0 c-0.12 0 -0.28 -0.16 -0.28 -0.36 l0 -12.12 l-5.96 -13.4 c-0.08 -0.28 0.04 -0.52 0.32 -0.52 l4.48 0 c0.16 0 0.2 0 0.32 0.2 z M324.0969999999999 26.6 l5 -10.4 c0.12 -0.24 -0.28 -0.44 -0.44 -0.16 l-4.76 9.96 l-4.88 -9.96 c-0.16 -0.28 -0.6 -0.08 -0.48 0.2 l5.12 10.36 l0 11.04 c0 0.28 0.44 0.32 0.44 0 l0 -11.04 z"></path></g><g id="SvgjsG1905" featurekey="sloganFeature-0" transform="matrix(0.6551848729374925,0,0,0.6551848729374925,96.99999968758351,198.81580080521417)" fill="#970747"><path d="M7.28 6.5 l-5.78 0 l0 5.5 l5.68 0 l0 1.44 l-5.68 0 l0 6.56 l-1.5 0 l0 -15 l7.28 0 l0 1.5 z M17.240000000000002 20 l-1.72 -0.000019531 l-3.14 -6.06 l-2.6 0 l0 6.06 l-1.34 0 l0 -15 l3.44 0 c1.3733 0 2.46 0.39334 3.26 1.18 s1.2 1.8667 1.2 3.24 c0 0.42666 -0.05666 0.86 -0.17 1.3 s-0.27668 0.85334 -0.49002 1.24 s-0.47668 0.73666 -0.79002 1.05 s-0.67 0.55668 -1.07 0.73002 z M14.920000000000002 9.32 c0 -0.46666 -0.08 -0.88664 -0.24 -1.26 s-0.38 -0.69 -0.66 -0.95 s-0.61334 -0.46 -1 -0.6 s-0.80666 -0.21 -1.26 -0.21 l-1.98 0 l0 6.26 l2.1 0 c1.0667 0 1.84 -0.28666 2.32 -0.86 s0.72 -1.3667 0.72 -2.38 z M25.82 20 l-7.5 0 l0 -15 l7.36 0 l0 1.52 l-5.98 0 l0 5.16 l5.94 0 l0 1.3 l-5.94 0 l0 5.5 l6.12 0 l0 1.52 z M34.14 16.12 c0 1.2267 -0.3199 2.21 -0.9599 2.95 s-1.5933 1.11 -2.86 1.11 c-0.74666 0 -1.3767 -0.10666 -1.89 -0.32 s-0.93 -0.52 -1.25 -0.92 s-0.55 -0.88 -0.69 -1.44 s-0.20334 -1.1867 -0.19 -1.88 l0.02 -0.52 l1.54 0 c0 0.42666 0.01334 0.86332 0.04 1.31 s0.11332 0.85332 0.25998 1.22 s0.37332 0.66666 0.67998 0.9 s0.74666 0.35 1.32 0.35 c0.88 0 1.5267 -0.23334 1.94 -0.7 s0.62 -1.12 0.62 -1.96 c0 -0.66666 -0.16 -1.1933 -0.48 -1.58 s-0.72 -0.71332 -1.2 -0.97998 s-0.99666 -0.50666 -1.55 -0.72 s-1.07 -0.48 -1.55 -0.8 s-0.88 -0.73 -1.2 -1.23 s-0.48 -1.1633 -0.48 -1.99 c0 -1.3333 0.34334 -2.3434 1.03 -3.03 s1.6967 -1.03 3.03 -1.03 c0.62666 0 1.17 0.1 1.63 0.3 s0.84334 0.48 1.15 0.84 s0.53332 0.78666 0.67998 1.28 s0.22 1.04 0.22 1.64 l0 1.26 l-1.46 0 c0 -0.44 -0.0033398 -0.89666 -0.01 -1.37 s-0.07666 -0.90668 -0.21 -1.3 s-0.35668 -0.71668 -0.67002 -0.97002 s-0.77 -0.38 -1.37 -0.38 c-0.86666 0 -1.52 0.22 -1.96 0.66 s-0.64666 1.0867 -0.62 1.94 l0 0.2 c0.01334 0.41334 0.08334 0.75668 0.21 1.03 s0.3 0.50668 0.52 0.70002 s0.47666 0.36334 0.77 0.51 s0.61334 0.3 0.96 0.46 c0.50666 0.22666 1 0.46666 1.48 0.72 s0.90334 0.55 1.27 0.89 s0.66332 0.74 0.88998 1.2 s0.34 1.01 0.34 1.65 z M43.26 20 l-1.52 0 l-0.02 -6.8 l-4.8 0 l0.02 6.8 l-1.5 0 l0 -15 l1.5 0 l-0.02 6.78 l4.8 0 l0.02 -6.78 l1.52 0 l0 15 z M52.519999999999996 20 l-7.5 0 l0 -15 l7.36 0 l0 1.52 l-5.98 0 l0 5.16 l5.94 0 l0 1.3 l-5.94 0 l0 5.5 l6.12 0 l0 1.52 z M62.42 20 l-1.72 -0.000019531 l-3.14 -6.06 l-2.6 0 l0 6.06 l-1.34 0 l0 -15 l3.44 0 c1.3733 0 2.46 0.39334 3.26 1.18 s1.2 1.8667 1.2 3.24 c0 0.42666 -0.05666 0.86 -0.17 1.3 s-0.27668 0.85334 -0.49002 1.24 s-0.47668 0.73666 -0.79002 1.05 s-0.67 0.55668 -1.07 0.73002 z M60.099999999999994 9.32 c0 -0.46666 -0.08 -0.88664 -0.24 -1.26 s-0.38 -0.69 -0.66 -0.95 s-0.61334 -0.46 -1 -0.6 s-0.80666 -0.21 -1.26 -0.21 l-1.98 0 l0 6.26 l2.1 0 c1.0667 0 1.84 -0.28666 2.32 -0.86 s0.72 -1.3667 0.72 -2.38 z M74.44 6.460000000000001 l-3.1 0 l0 13.54 l-1.48 0 l0 -13.54 l-3.1 0 l0 -1.46 l7.68 0 l0 1.46 z M83.10000000000002 20 l-1.52 0 l-0.02 -6.8 l-4.8 0 l0.02 6.8 l-1.5 0 l0 -15 l1.5 0 l-0.02 6.78 l4.8 0 l0.02 -6.78 l1.52 0 l0 15 z M93.30000000000001 20 l-1.4 0 l-1.06 -4.3 l-4.36 0 l-1.06 4.3 l-1.36 0 l4.06 -15 l1.14 0 z M90.50000000000001 14.36 l-1.78 -7.42 l-1.9 7.42 l3.68 0 z M102.62000000000002 20 l-1.56 0 l-5.2 -11.8 l0 11.8 l-1.44 0 l0 -15 l1.44 0 l5.22 11.3 l0.12 -11.3 l1.42 0 l0 15 z M116.26000000000002 5 l-3.54 8.16 l0 6.84 l-1.44 0 l0 -6.84 l-3.54 -8.16 l1.6 0 l2.64 6.44 l2.68 -6.44 l1.6 0 z M124.46000000000004 16.12 c0 1.4133 -0.31666 2.4434 -0.95 3.09 s-1.6633 0.97 -3.09 0.97 c-1.3067 0 -2.2634 -0.36 -2.87 -1.08 s-0.91 -1.7133 -0.91 -2.98 l0 -7.2 c0 -1.3733 0.32334 -2.3934 0.97 -3.06 s1.6633 -1 3.05 -1 c1.32 0 2.2834 0.35 2.89 1.05 s0.91 1.69 0.91 2.97 l0 7.24 z M123.06000000000003 16.08 l-0.000019531 -7.22 c0 -0.76 -0.2 -1.3933 -0.6 -1.9 s-1.0067 -0.76 -1.82 -0.76 c-0.97334 0 -1.65 0.25334 -2.03 0.76 s-0.57 1.22 -0.57 2.14 l0 6.9 c0 0.38666 0.04334 0.75 0.13 1.09 s0.22666 0.63666 0.42 0.89 s0.44 0.45334 0.74 0.6 s0.66334 0.22 1.09 0.22 c0.93334 0 1.6067 -0.22666 2.02 -0.68 s0.62 -1.1333 0.62 -2.04 z M134.06000000000003 16.12 c0 1.3333 -0.32336 2.3434 -0.97002 3.03 s-1.6433 1.03 -2.99 1.03 c-1.28 0 -2.2434 -0.36666 -2.89 -1.1 s-0.97 -1.72 -0.97 -2.96 l0 -11.12 l1.42 0 l0 11.06 c0 0.37334 0.05 0.72334 0.15 1.05 s0.25 0.61332 0.45 0.85998 s0.45 0.44 0.75 0.58 s0.65 0.21 1.05 0.21 c0.97334 0 1.65 -0.27 2.03 -0.81 s0.57 -1.2633 0.57 -2.17 l0 -10.78 l1.4 0 l0 11.12 z M144.72000000000003 20 l-1.72 -0.000019531 l-3.14 -6.06 l-2.6 0 l0 6.06 l-1.34 0 l0 -15 l3.44 0 c1.3733 0 2.46 0.39334 3.26 1.18 s1.2 1.8667 1.2 3.24 c0 0.42666 -0.05666 0.86 -0.17 1.3 s-0.27668 0.85334 -0.49002 1.24 s-0.47668 0.73666 -0.79002 1.05 s-0.67 0.55668 -1.07 0.73002 z M142.4 9.32 c0 -0.46666 -0.08 -0.88664 -0.24 -1.26 s-0.38 -0.69 -0.66 -0.95 s-0.61334 -0.46 -1 -0.6 s-0.80666 -0.21 -1.26 -0.21 l-1.98 0 l0 6.26 l2.1 0 c1.0667 0 1.84 -0.28666 2.32 -0.86 s0.72 -1.3667 0.72 -2.38 z M159.3 20 l-1.34 0 l0 -11.58 l-3.14 7.62 l-1.36 -0.02 l-3.06 -7.6 l0 11.58 l-1.34 0 l0 -15 l1.34 0 l3.76 9.18 l3.8 -9.18 l1.34 0 l0 15 z M168.78 16.12 c0 1.4133 -0.31666 2.4434 -0.95 3.09 s-1.6633 0.97 -3.09 0.97 c-1.3067 0 -2.2634 -0.36 -2.87 -1.08 s-0.91 -1.7133 -0.91 -2.98 l0 -7.2 c0 -1.3733 0.32334 -2.3934 0.97 -3.06 s1.6633 -1 3.05 -1 c1.32 0 2.2834 0.35 2.89 1.05 s0.91 1.69 0.91 2.97 l0 7.24 z M167.38 16.08 l-0.000019531 -7.22 c0 -0.76 -0.2 -1.3933 -0.6 -1.9 s-1.0067 -0.76 -1.82 -0.76 c-0.97334 0 -1.65 0.25334 -2.03 0.76 s-0.57 1.22 -0.57 2.14 l0 6.9 c0 0.38666 0.04334 0.75 0.13 1.09 s0.22666 0.63666 0.42 0.89 s0.44 0.45334 0.74 0.6 s0.66334 0.22 1.09 0.22 c0.93334 0 1.6067 -0.22666 2.02 -0.68 s0.62 -1.1333 0.62 -2.04 z M180.50000000000003 20 l-1.34 0 l0 -11.58 l-3.14 7.62 l-1.36 -0.02 l-3.06 -7.6 l0 11.58 l-1.34 0 l0 -15 l1.34 0 l3.76 9.18 l3.8 -9.18 l1.34 0 l0 15 z"></path></g></svg>